<svg width="300" height="115" viewBox="0 0 300 115" fill="none" xmlns="http://www.w3.org/2000/svg"><path d="M0 0h300v4.278H0Zm0 0h4.278v85.896H0Zm300 85.896H0v-4.278h300Zm0 0h-4.277V0H300Z" class="N6bfHe9mC" fill="#3064e8"/><path d="M22.172 63.596h4.481c.813 0 1.648.021 2.493.075s1.657.107 2.438.16c.78.054 1.519.107 2.193.16.684.054 1.272.076 1.775.076 1.711 0 3.22-.417 4.524-1.241 1.305-.824 2.386-1.968 3.241-3.444.856-1.476 1.508-3.22 1.947-5.23.438-2.022.663-4.214.663-6.6 0-2.363-.267-4.47-.802-6.331-.535-1.861-1.273-3.433-2.225-4.728-.952-1.294-2.086-2.288-3.401-2.962-1.316-.685-2.76-1.016-4.321-1.016-1.615 0-3.294.556-5.048 1.69 0-1.188.01-2.418.032-3.67.021-1.25.042-2.448.074-3.603.033-1.145.075-2.204.107-3.177.043-.973.097-1.765.16-2.364l-9.112 2.503v.16c.749 0 1.38.043 1.904.14s.963.32 1.305.684c.342.374.599.92.78 1.647.182.738.31 1.722.396 2.984.086 1.252.129 2.813.14 4.674.01 1.872.01 4.15.01 6.824 0 2.631-.053 5.337-.15 8.129a286.017 286.017 0 0 0-.192 9.037c-.107 1.252-.396 2.343-.888 3.273-.492.93-1.337 1.594-2.524 1.99Zm7.925-19.552.033-6.77v-.406c.812-.482 1.572-.824 2.267-1.038.706-.203 1.358-.31 1.957-.31 2.343 0 4.075 1.005 5.188 3.006 1.123 2.01 1.679 5.016 1.679 9.027 0 2.214-.15 4.17-.45 5.872-.31 1.7-.727 3.133-1.272 4.278-.546 1.155-1.198 2.021-1.957 2.62a3.975 3.975 0 0 1-2.525.888c-.673 0-1.38-.032-2.128-.086-.76-.064-1.572-.15-2.45-.256a396.294 396.294 0 0 1-.277-8.428c-.065-2.899-.086-5.701-.065-8.397Zm26.076-7.273c0-.791 0-1.561.022-2.3s.117-1.4.288-1.956l-8.492 2.502v.16c1.145 0 2.032.215 2.642.643.62.427 1.07 1.165 1.348 2.203.288 1.048.449 2.45.492 4.203.042 1.754.064 3.958.064 6.61 0 1.754-.032 3.551-.096 5.38a356.26 356.26 0 0 1-.257 5.84 3.865 3.865 0 0 1-.792 2.118c-.47.61-1.24 1.037-2.31 1.262v.16h10.193v-.16c-1.422-.514-2.193-1.605-2.289-3.252-.171-2.695-.257-5.38-.267-8.043-.01-2.663-.022-5.358-.022-8.097 0-1.272.15-2.417.439-3.433.3-1.016.663-1.872 1.102-2.588.438-.706.92-1.252 1.454-1.637.535-.395 1.048-.588 1.551-.588.396 0 .727.118 1.005.353.268.225.492.524.674.888.171.364.31.77.385 1.208.086.439.129.856.129 1.252 0 .567-.065 1.016-.182 1.347l.085.065 3.359-5.487c-.717-1.006-1.487-1.733-2.321-2.203-.834-.471-1.68-.706-2.535-.706-1.134 0-2.203.374-3.23 1.123-1.027.759-1.84 1.797-2.439 3.133Zm23.306 16.14-.032.16c.877.46 1.53 1.006 1.957 1.658.428.642.642 1.305.642 1.968 0 .567-.064 1.113-.203 1.647a4.221 4.221 0 0 1-.653 1.444c-.3.428-.695.77-1.166 1.038-.46.257-1.048.385-1.732.385-1.444 0-2.631-.77-3.573-2.332-.94-1.55-1.55-4.043-1.818-7.476l13.252-4.631c-.107-2.321-.374-4.375-.824-6.16-.449-1.787-1.048-3.284-1.775-4.482-.727-1.198-1.583-2.107-2.556-2.728a5.876 5.876 0 0 0-3.177-.92 7.39 7.39 0 0 0-3.85 1.06c-1.198.716-2.225 1.753-3.102 3.101-.877 1.358-1.572 3.038-2.075 5.016-.503 1.99-.749 4.268-.749 6.835s.246 4.845.75 6.834c.502 1.979 1.197 3.648 2.074 5.006.877 1.358 1.904 2.396 3.102 3.102a7.313 7.313 0 0 0 3.85 1.07c.963 0 1.947-.225 2.941-.664 1.006-.438 1.926-1.112 2.75-2.021.823-.899 1.497-2.043 2.031-3.412s.803-2.995.803-4.867Zm-6.738-4.289v-.128c0-4.204.449-7.37 1.337-9.498.887-2.128 2.139-3.198 3.743-3.198 1.145 0 2.064.695 2.738 2.075.685 1.38 1.123 3.519 1.337 6.417-.438.257-.941.557-1.508.91a18.03 18.03 0 0 1-2 1.07 87.03 87.03 0 0 1-3.39 1.475c-.899.353-1.648.642-2.257.877Zm36.889-3.572c0-4.118-.631-7.241-1.872-9.359-1.24-2.118-2.952-3.176-5.123-3.176-.439 0-.91.053-1.423.17-.513.118-1.026.332-1.55.642s-1.038.75-1.54 1.305c-.503.546-.952 1.262-1.38 2.14 0-.792.01-1.562.032-2.3.021-.738.117-1.401.289-1.957l-8.493 3.754v.16c1.145 0 2.032.203 2.642.6.62.395 1.07 1.069 1.348 2.02.289.942.449 2.215.492 3.808.043 1.583.064 3.583.064 5.98 0 1.753-.032 3.55-.096 5.379a356.26 356.26 0 0 1-.257 5.84 3.865 3.865 0 0 1-.792 2.118c-.47.61-1.24 1.037-2.31 1.262v.16h10.182v-.16c-.727-.268-1.272-.685-1.636-1.23-.364-.557-.588-1.23-.642-2.022a194.233 194.233 0 0 1-.224-6.032c-.043-2-.065-4.011-.065-6.032v-4.076c0-1.208.14-2.32.407-3.326.278-.995.631-1.86 1.08-2.577.45-.728.984-1.284 1.583-1.68a3.53 3.53 0 0 1 1.947-.599c.748 0 1.337.364 1.743 1.08.407.728.717 1.733.92 3.038.214 1.316.331 2.888.374 4.717.043 1.84.064 3.872.064 6.086 0 1.101-.01 2.438-.042 3.99a451.456 451.456 0 0 1-.15 5.283c-.054.791-.246 1.497-.578 2.118-.32.61-.845 1.037-1.583 1.262v.16h9.776v-.16c-.952-.268-1.668-.685-2.128-1.23-.46-.557-.717-1.23-.781-2.022a409.303 409.303 0 0 1-.16-3.947 217.645 217.645 0 0 1-.097-3.572c-.01-1.176-.021-2.374-.021-3.594Zm10.364 3.444c0-4.204.417-7.359 1.251-9.466.845-2.107 2.011-3.166 3.52-3.166 1.518 0 2.662 1.06 3.422 3.166.77 2.107 1.144 5.262 1.144 9.466 0 4.193-.374 7.358-1.144 9.498-.76 2.128-1.904 3.187-3.423 3.187-1.508 0-2.674-1.059-3.519-3.187-.834-2.14-1.251-5.305-1.251-9.498Zm-4.695 0c0 2.567.246 4.845.738 6.834.492 1.979 1.155 3.648 2 5.006s1.85 2.396 2.994 3.102a6.913 6.913 0 0 0 3.733 1.07c1.273 0 2.47-.354 3.605-1.07 1.123-.706 2.107-1.744 2.94-3.102s1.498-3.027 1.99-5.006c.492-1.989.738-4.267.738-6.834 0-2.567-.246-4.845-.738-6.835-.492-1.978-1.155-3.658-1.99-5.016-.833-1.348-1.817-2.385-2.94-3.08-1.134-.706-2.332-1.048-3.605-1.048a6.986 6.986 0 0 0-3.733 1.048c-1.144.695-2.15 1.732-2.994 3.08-.845 1.358-1.508 3.038-2 5.016-.492 1.99-.738 4.268-.738 6.835Zm41.488-4.45.032-6.77c0-1.273 0-2.674.01-4.203.011-1.519.033-3.027.065-4.503.032-1.487.064-2.866.107-4.14.042-1.272.107-2.288.192-3.037l-9.123 2.503v.16c1.198 0 2.096.214 2.717.653.61.438 1.048 1.112 1.315 2.021.257.91.396 2.065.417 3.466.022 1.4.032 3.07.032 5.016a4.217 4.217 0 0 0-.952-1.24 5.54 5.54 0 0 0-1.24-.846 5.404 5.404 0 0 0-1.316-.47 5.686 5.686 0 0 0-1.22-.14c-1.443 0-2.759.332-3.967 1.017-1.198.674-2.236 1.668-3.102 2.962s-1.54 2.867-2.021 4.728c-.482 1.86-.717 3.968-.717 6.332 0 2.385.193 4.588.599 6.61.396 2.032.984 3.775 1.786 5.251.792 1.476 1.776 2.62 2.941 3.444s2.535 1.23 4.108 1.209c.77-.022 1.443-.16 2.021-.428a5.98 5.98 0 0 0 1.465-.91c.407-.342.749-.695 1.006-1.08a7.33 7.33 0 0 0 .577-.909 5.66 5.66 0 0 0 .77 1.669c.343.503.856.898 1.52 1.187h5.796v-.16c-1.144-.375-2-1.006-2.567-1.894-.567-.887-.888-1.968-.973-3.24-.15-2.407-.235-4.76-.268-7.08s-.032-4.718-.01-7.178Zm-8.813 17.167c-.792 0-1.508-.289-2.14-.888-.641-.599-1.197-1.465-1.657-2.62-.47-1.145-.835-2.578-1.091-4.278-.246-1.701-.375-3.658-.375-5.872 0-8.022 1.98-12.033 5.926-12.033.267 0 .63.054 1.08.16.45.097.888.396 1.316.888.427.492.802 1.262 1.112 2.3.31 1.048.47 2.513.47 4.396 0 .94 0 1.84-.01 2.727l-.032 2.642a121.726 121.726 0 0 1-.203 5.69c-.107 2.3-.589 4.021-1.444 5.166-.856 1.155-1.84 1.722-2.952 1.722Zm20.813-18.675.064-.096a6.619 6.619 0 0 1-.705-1.658 6.132 6.132 0 0 1-.268-1.786c0-.438.043-.845.14-1.24a2.77 2.77 0 0 1 .47-1.017c.214-.288.502-.524.845-.684.342-.171.77-.257 1.273-.257.577 0 1.101.118 1.55.332.45.224.813.63 1.113 1.24.289.6.513 1.444.652 2.503.15 1.07.225 2.439.225 4.107a9.064 9.064 0 0 0-2.043-.214c-1.412 0-2.706.353-3.85 1.06a10.566 10.566 0 0 0-2.963 2.77 13.436 13.436 0 0 0-1.915 3.86 14.324 14.324 0 0 0-.674 4.31c0 1.124.14 2.215.418 3.274.267 1.048.684 1.99 1.251 2.802a6.227 6.227 0 0 0 2.14 1.947c.865.47 1.903.716 3.09.716.813 0 1.53-.15 2.15-.438a6.269 6.269 0 0 0 2.642-2.3c.278-.428.47-.77.599-1.027.128.61.31 1.166.567 1.669.246.503.61.898 1.09 1.187h4.856v-.16c-.641-.204-1.165-.524-1.55-.952a4.55 4.55 0 0 1-.878-1.444 6.735 6.735 0 0 1-.385-1.68 15.079 15.079 0 0 1-.096-1.657v-1.68c0-.406 0-.92.01-1.561s.022-1.444.022-2.428 0-2.171.01-3.562c.012-1.38.022-3.026.022-4.93.022-3.637-.61-6.385-1.904-8.247-1.283-1.85-3.219-2.78-5.807-2.78-.728 0-1.476.074-2.246.214a5.75 5.75 0 0 0-2.16.93c-.675.47-1.295 1.144-1.851 2.032-.546.888-.963 2.075-1.23 3.562Zm1.348 18.643c-.503 0-.941-.171-1.316-.514-.374-.342-.695-.802-.94-1.38-.258-.577-.44-1.24-.568-1.989a14.113 14.113 0 0 1-.182-2.385c0-1.08.107-2.15.343-3.187.224-1.048.556-1.968 1.005-2.76.439-.791.973-1.433 1.626-1.925a3.57 3.57 0 0 1 2.225-.738c.61 0 1.208.107 1.818.31v5.99c0 .791-.064 1.68-.193 2.674a14.299 14.299 0 0 1-.641 2.802c-.3.877-.706 1.615-1.22 2.214-.513.6-1.166.888-1.957.888Zm32.771-17.135.032-6.77c0-1.273.011-2.674.022-4.203.01-1.519.032-3.027.053-4.503.032-1.487.075-2.866.118-4.14.043-1.272.107-2.288.182-3.037l-9.113 2.503v.16c1.187 0 2.096.214 2.706.653.62.438 1.059 1.112 1.316 2.021.267.91.406 2.065.427 3.466.022 1.4.032 3.07.032 5.016a4.25 4.25 0 0 0-.962-1.24 5.48 5.48 0 0 0-1.23-.846 5.404 5.404 0 0 0-1.316-.47 5.706 5.706 0 0 0-1.23-.14c-1.433 0-2.76.332-3.957 1.017-1.209.674-2.235 1.668-3.102 2.962s-1.54 2.867-2.021 4.728c-.482 1.86-.728 3.968-.728 6.332 0 2.385.204 4.588.6 6.61.395 2.032.994 3.775 1.786 5.251.791 1.476 1.775 2.62 2.94 3.444 1.177.824 2.546 1.23 4.108 1.209.77-.022 1.444-.16 2.021-.428.578-.257 1.07-.556 1.476-.91a5.563 5.563 0 0 0 1.006-1.08c.257-.374.449-.673.577-.909.16.61.418 1.166.77 1.669.343.503.845.898 1.52 1.187h5.796v-.16c-1.155-.375-2.01-1.006-2.577-1.894-.557-.887-.888-1.968-.963-3.24-.15-2.407-.235-4.76-.267-7.08s-.043-4.718-.022-7.178Zm-8.802 17.167c-.792 0-1.508-.289-2.15-.888-.631-.599-1.187-1.465-1.658-2.62-.47-1.145-.834-2.578-1.08-4.278-.246-1.701-.374-3.658-.374-5.872 0-8.022 1.968-12.033 5.925-12.033.267 0 .63.054 1.08.16.45.097.888.396 1.316.888.428.492.791 1.262 1.112 2.3.31 1.048.47 2.513.47 4.396 0 .94-.01 1.84-.02 2.727l-.033 2.642a121.726 121.726 0 0 1-.203 5.69c-.107 2.3-.588 4.021-1.444 5.166-.856 1.155-1.829 1.722-2.941 1.722Zm20.803-18.675.064-.096a7.51 7.51 0 0 1-.706-1.658 6.515 6.515 0 0 1-.267-1.786c0-.438.053-.845.15-1.24.085-.386.245-.717.46-1.017.224-.288.502-.524.855-.684.342-.171.76-.257 1.262-.257.588 0 1.102.118 1.55.332.45.224.824.63 1.113 1.24.3.6.514 1.444.663 2.503.14 1.07.214 2.439.214 4.107a8.97 8.97 0 0 0-2.032-.214c-1.422 0-2.706.353-3.85 1.06a10.424 10.424 0 0 0-2.963 2.77 13.436 13.436 0 0 0-1.915 3.86 14.324 14.324 0 0 0-.673 4.31c0 1.124.139 2.215.406 3.274.267 1.048.685 1.99 1.251 2.802a6.359 6.359 0 0 0 2.15 1.947c.867.47 1.893.716 3.08.716.824 0 1.54-.15 2.15-.438a6.084 6.084 0 0 0 1.583-1.049 6.664 6.664 0 0 0 1.07-1.25c.267-.429.47-.771.588-1.028.128.61.321 1.166.567 1.669.257.503.62.898 1.102 1.187h4.855v-.16c-.652-.204-1.165-.524-1.55-.952a4.364 4.364 0 0 1-.877-1.444 6.749 6.749 0 0 1-.396-1.68 15.079 15.079 0 0 1-.096-1.657v-1.68c0-.406.01-.92.02-1.561s.012-1.444.012-2.428.01-2.171.021-3.562c.01-1.38.01-3.026.01-4.93.022-3.637-.609-6.385-1.892-8.247-1.284-1.85-3.22-2.78-5.819-2.78-.727 0-1.476.074-2.235.214-.76.15-1.487.46-2.16.93-.685.47-1.295 1.144-1.851 2.032-.556.888-.963 2.075-1.24 3.562Zm1.347 18.643c-.502 0-.94-.171-1.315-.514-.375-.342-.685-.802-.941-1.38a8.396 8.396 0 0 1-.557-1.989 14.083 14.083 0 0 1-.192-2.385c0-1.08.118-2.15.342-3.187.235-1.048.567-1.968 1.006-2.76.438-.791.984-1.433 1.625-1.925a3.592 3.592 0 0 1 2.225-.738c.61 0 1.22.107 1.818.31v5.99c0 .791-.064 1.68-.182 2.674a14.299 14.299 0 0 1-.641 2.802c-.31.877-.717 1.615-1.23 2.214-.503.6-1.155.888-1.958.888Zm21.22-39.788-9.123 2.503v.16c.749 0 1.39.043 1.915.14s.951.32 1.294.684c.353.374.61.92.791 1.647.171.738.3 1.722.385 2.984a69.31 69.31 0 0 1 .14 4.674c.01 1.872.02 4.15.02 6.824 0 2.738-.042 5.54-.138 8.428-.097 2.877-.214 6-.364 9.37-.086 1.101-.353 2.064-.813 2.877s-1.22 1.4-2.289 1.754v.16h11.316v-.16c-1.07-.353-1.85-.91-2.353-1.669-.503-.77-.791-1.711-.877-2.845-.171-2.77-.257-5.551-.267-8.332-.01-2.78-.01-5.583-.01-8.428 0-3.882 0-7.572.01-11.06s.128-6.727.363-9.71Zm13.905 11.872h-2.193a64.77 64.77 0 0 1 .396-4.524 32.99 32.99 0 0 1 .802-4.214l-7.24 3.444v.16c.288 0 .534.043.737.118.193.086.353.3.481.642.129.353.225.855.29 1.54.053.674.106 1.626.149 2.834h-3.07v1.883c.171.043.385.085.663.128.225.032.535.075.942.118.395.043.898.085 1.497.128.021 1.091.032 2.332.032 3.744v4.877c0 .994-.01 1.914-.032 2.738a201.12 201.12 0 0 0-.043 2.524c-.01.856-.032 1.765-.053 2.738-.022.973-.032 2.096-.032 3.37 0 1.133.15 2.235.438 3.304.3 1.08.717 2.032 1.273 2.867a6.813 6.813 0 0 0 2.043 2.021c.802.513 1.711.77 2.738.77 1.005 0 2.086-.203 3.24-.61 1.166-.406 2.418-1.08 3.776-2.021l-3.979-6.738-.096.064c.128.353.193.802.193 1.348a6.14 6.14 0 0 1-.257 1.828 5.279 5.279 0 0 1-.652 1.444 3.334 3.334 0 0 1-.91.942c-.331.214-.673.331-1.005.331-.599 0-1.144-.32-1.626-.941-.481-.631-.727-1.669-.727-3.134s0-2.813-.01-4.064a25697.665 25697.665 0 0 1-.065-7.797c-.01-1.433-.01-3.06-.01-4.877v-2.332c0-.76.01-1.508.032-2.235h2.256c1.06 0 1.926.064 2.6.213.662.15 1.187.3 1.56.471.44.214.771.428 1.006.663l1.252-4.075a13.01 13.01 0 0 1-1.476.15 47.26 47.26 0 0 1-1.99.118c-.802.032-1.775.042-2.93.042Zm13.198 15.23c0-4.203.417-7.358 1.251-9.465.835-2.107 2.011-3.166 3.509-3.166 1.53 0 2.673 1.06 3.433 3.166s1.144 5.262 1.144 9.466c0 4.193-.385 7.358-1.144 9.498-.76 2.128-1.904 3.187-3.433 3.187-1.498 0-2.674-1.059-3.509-3.187-.834-2.14-1.25-5.305-1.25-9.498Zm-4.706 0c0 2.568.246 4.846.738 6.835.492 1.979 1.166 3.648 2.01 5.006.846 1.358 1.84 2.396 2.996 3.102a6.877 6.877 0 0 0 3.722 1.07c1.272 0 2.481-.354 3.604-1.07 1.134-.706 2.107-1.744 2.941-3.102.845-1.358 1.508-3.027 2-5.006.482-1.989.728-4.267.728-6.834 0-2.567-.246-4.845-.728-6.835-.492-1.978-1.155-3.658-2-5.016-.834-1.348-1.807-2.385-2.941-3.08a6.661 6.661 0 0 0-3.604-1.048 6.95 6.95 0 0 0-3.722 1.048c-1.156.695-2.15 1.732-2.995 3.08-.845 1.358-1.519 3.038-2.011 5.016-.492 1.99-.738 4.268-.738 6.835Z" class="text" fill="#3064e8"/><path d="m250.651 99.65 9.177 11.231h.578V96.592h-.92v10.396l-7.444-9.113a3.247 3.247 0 0 0-1.23-.962c-.481-.214-1.07-.321-1.765-.321h-1.412v.492h.193c.695 0 1.198.182 1.486.535.29.353.439.866.439 1.54v11.551h.898Zm14.546 10.579c.728.46 1.583.695 2.567.695.984 0 1.84-.235 2.567-.695a4.52 4.52 0 0 0 1.669-1.883c.385-.791.577-1.679.577-2.663 0-.984-.192-1.872-.577-2.663a4.52 4.52 0 0 0-1.669-1.882c-.727-.46-1.583-.696-2.567-.696-.984 0-1.84.236-2.567.696a4.52 4.52 0 0 0-1.668 1.882c-.385.791-.578 1.68-.578 2.663 0 .984.193 1.872.578 2.663a4.52 4.52 0 0 0 1.668 1.883Zm4.428-1.423c-.47.824-1.09 1.241-1.86 1.241s-1.391-.417-1.862-1.24c-.47-.824-.706-1.872-.706-3.124s.236-2.3.706-3.123c.47-.823 1.091-1.24 1.861-1.24s1.39.417 1.861 1.24c.471.824.706 1.872.706 3.123s-.235 2.3-.706 3.123Zm6.482 1.401c.481.482 1.144.717 1.99.717 1.08 0 1.978-.289 2.695-.877l-.236-.47a5.116 5.116 0 0 1-.748.342 2.662 2.662 0 0 1-.877.128c-.471 0-.824-.16-1.049-.481-.224-.321-.342-.813-.342-1.487v-6.546h2.503v-.877h-2.503v-3.208h-1.09l-1.07 1.283v1.925h-1.434v.877h1.434v6.525c0 .952.246 1.668.727 2.15Zm6.45-.02c.652.491 1.411.737 2.278.737.695 0 1.294-.118 1.775-.342.481-.225.856-.503 1.112-.834h.107l.749.962h1.262v-5.775c0-1.68-.342-2.856-1.037-3.509-.696-.652-1.648-.984-2.878-.984a9.83 9.83 0 0 0-1.957.182c-.577.118-.995.31-1.251.567-.246.246-.396.513-.45.813-.053.3-.085.695-.085 1.176h1.027c.16-.684.428-1.165.802-1.443s.877-.418 1.487-.418c.716 0 1.251.257 1.625.781.375.524.557 1.455.557 2.813h-.557c-1.754 0-3.112.235-4.085.717-.974.481-1.455 1.251-1.455 2.32 0 .995.32 1.744.973 2.236Zm5.123-1.573c-.482.888-1.145 1.326-1.968 1.326-.546 0-.984-.171-1.337-.513-.353-.343-.524-.835-.524-1.476 0-.685.278-1.22.844-1.594.567-.374 1.37-.567 2.428-.567h.557Zm5.048 1.454c.599.567 1.722.856 3.358.856 1.155 0 2.097-.246 2.824-.738.727-.492 1.09-1.176 1.09-2.064 0-.695-.224-1.273-.684-1.722-.46-.45-1.176-.877-2.16-1.294l-1.284-.535c-1.101-.47-1.647-1.059-1.647-1.754 0-.439.182-.802.535-1.08.353-.279.866-.418 1.519-.418.823 0 1.476.204 1.957.61.481.407.78.973.91 1.7h.513c0-.673-.032-1.165-.086-1.486a1.526 1.526 0 0 0-.45-.845c-.598-.567-1.69-.856-3.272-.856-1.102 0-1.99.246-2.663.738-.674.492-1.016 1.177-1.016 2.065 0 .673.214 1.23.652 1.69.439.46 1.091.866 1.957 1.219l1.241.535c.653.267 1.145.545 1.455.823.31.278.47.62.47 1.038 0 .46-.192.823-.567 1.09-.374.268-.951.407-1.722.407-.866 0-1.54-.203-2.021-.61-.481-.406-.78-.973-.91-1.7h-.513c0 .652.033 1.144.086 1.476.054.331.203.61.428.855Z" class="text" fill="#454545"/></svg>